<?xml version="1.0" encoding="UTF-8"?>
<svg xmlns="http://www.w3.org/2000/svg" version="1.1" viewBox="0 0 800 800">
  <defs>
    <style>
      .cls-1 {
        fill: none;
        stroke: #fff;
        stroke-linecap: round;
        stroke-linejoin: round;
        stroke-opacity: .9;
        stroke-width: 32px;
      }
    </style>
  </defs>
  <!-- Generator: Adobe Illustrator 28.7.1, SVG Export Plug-In . SVG Version: 1.2.0 Build 142)  -->
  <g>
    <g id="Layer_1">
      <path class="cls-1" d="M139,313.2c34.9-16.1,47.5-48.4,74.8-69.3,15.5-11.9,40.7-19.4,55.9-34,3.2-3.1,28.1-32,32.4-29.8,11.2,5.7,40.5,54.8,51.4,67.2"/>
      <path class="cls-1" d="M327.2,276.2c3.9-1.5,16-8.3,20.3-9.2,7.1-1.4,10.6-10.6,20.1-7.8,10.6,3.1,9.8,20.5,15.2,27,4.9,5.8,17.7,7.3,24.2,12.1,13.4,9.8,18.9,30,30.5,41.9,20.5,21,40.9,40.9,59.6,63.9"/>
      <path class="cls-1" d="M308,192.1c8.3,29.1-39.3,64.2-43.5,86.8"/>
      <path class="cls-1" d="M414.2,304.8c17.1-8.4,44.1-53.3,58.7-45.1,11.1,6.2,11.6,25,23.3,30.4,20.8,9.5,24.8-5.2,47.5,17.7,10.3,10.5,49.6,56.8,63,59.9,6.5,1.5,9.9-4.7,16.4-2,7.6,3.2,20.4,26.3,38,26.3"/>
      <path class="cls-1" d="M139,405.7c72.2-9,133.2,20.3,195.8,51.5,10.5,5.3,47,20,37.2,35-13.6,20.8-283.1,28.4-149.9,51.6,133.1,23.3-37.9,31.4-83.1,74.2"/>
      <path class="cls-1" d="M280.6,349.5c-.4,31.7-.9,73.7,0,100.9"/>
      <path class="cls-1" d="M302.9,425c-15.3,1.2-31.4,5.4-46.5,3.2"/>
      <path class="cls-1" d="M297.2,404.4c-10.5-.2-27.1.2-33.7.4"/>
      <path class="cls-1" d="M289.6,381.7c-6.4-.4-12.9-.4-19.5-.5"/>
      <path class="cls-1" d="M283.4,363.6c-1.7.5-3.5.2-5.2.3"/>
      <path class="cls-1" d="M234,331.4c-.4,31.7-.9,73.7,0,100.9"/>
      <path class="cls-1" d="M256.4,406.8c-15.3,1.2-31.4,5.4-46.5,3.2"/>
      <path class="cls-1" d="M250.7,386.2c-10.5-.2-27.1.2-33.7.4"/>
      <path class="cls-1" d="M243.1,363.6c-6.4-.4-12.9-.4-19.5-.5"/>
      <path class="cls-1" d="M236.9,345.4c-1.7.5-3.5.2-5.2.3"/>
      <path class="cls-1" d="M357.5,469.8c78.8,4.3,232-9.3,303.5.4"/>
    </g>
  </g>
</svg>